<?xml version="1.0" encoding="utf-8"?>
<!-- Generator: Adobe Illustrator 21.1.0, SVG Export Plug-In . SVG Version: 6.00 Build 0)  -->
<svg version="1.1" xmlns="http://www.w3.org/2000/svg" xmlns:xlink="http://www.w3.org/1999/xlink" x="0px" y="0px"
	 viewBox="0 0 1200 520" style="enable-background:new 0 0 1200 520;" xml:space="preserve">
<style type="text/css">
	.st0{fill:#167DB7;}
	.st1{fill:#FFFFFF;}
</style>
<g id="bg">
	<rect class="st0" width="1200" height="520"/>
</g>
<g id="logo_infojobs">
	<path class="st1" d="M138.5,322.2c0,2,2,3.3,4,3.3h33.4c2,0,4-1.3,4.7-4L201.3,147v-0.7c0-2-1.3-3.3-2.7-3.3H198h-35.5
		c-2,0-2.7,1.3-2.7,3.3L138.5,322.2z"/>
	<path class="st1" d="M336.5,221.2c0,5.4-0.7,10.7-1.3,16.1l-10.7,84.3c0,2-2,4-4,4h-30.8c-2,0-4-1.3-4-3.3v-0.7l10-81.6
		c0.7-3.3,0.7-7.4,0.7-10l0,0c0-4-0.7-7.4-2.7-9.4c-2.7-2.7-6.7-4-12.7-4c-12,0-26.1,3.3-26.1,3.3l-12.7,102.3c0,2-2,4-4.7,4h-30.8
		c-2,0-4-1.3-4-3.3v-0.7l13.4-109.7c3.3-10,9.4-12.7,24.7-16.1c13.4-2.7,33.4-6,48.8-6c18.1,0,31.4,2.7,39.5,10
		C333.1,205.2,336.5,211.8,336.5,221.2L336.5,221.2z"/>
	<path class="st1" d="M654.2,146.3c0-2-0.7-2.7-2.7-2.7h-0.7h-35.5c-2,0-3.3,1.3-3.3,3.3L590,330.2c-3.3,18.7-11.4,18.7-24.1,19.4
		c-5.4,0-10,0-13.4,0.7c-4,0-5.4,1.3-6,5.4l-2,14.7v1.3c0,3.3,2,4,4.7,4c4.7,0.7,6.7,1.3,24.1,1.3c29.4,0,53.5-8.7,58.2-48.2
		L654.2,146.3z"/>
	<path class="st1" d="M567.2,289.4c-8,22.7-25.4,38.1-65.6,38.1c-22.7,0-36.8-4.7-45.5-13.4s-11.4-21.4-11.4-35.5
		c0-16.1,3.3-40.1,9.4-54.2c8.7-21.4,26.1-35.5,64.2-35.5c22.7,0,37.5,5.4,45.5,13.4c8.7,8.7,11.4,20.1,11.4,34.8
		C575.3,253.3,572.6,275.4,567.2,289.4 M531.8,220.5c-3.3-3.3-8-5.4-16.7-5.4c-18.1,0-24.1,8-27.4,26.1c-2,12-4,26.1-4,38.8
		c0,8,1.3,13.4,4.7,16.7s8,4.7,16.1,4.7c18.7,0,24.1-8.7,27.4-27.4c2-12,4-24.7,4-36.8C535.8,229.2,535.1,223.9,531.8,220.5"/>
	<path class="st1" d="M783.3,289.4c-8,22.7-25.4,38.1-65.6,38.1c-22.7,0-36.8-4.7-45.5-13.4s-11.4-21.4-11.4-35.5
		c0-16.1,3.3-40.1,9.4-54.2c8.7-21.4,26.1-35.5,64.9-35.5c22.7,0,37.5,5.4,45.5,13.4c8.7,8.7,11.4,20.1,11.4,34.8
		C791.3,253.3,788.6,275.4,783.3,289.4 M747.8,220.5c-3.3-3.3-8-5.4-16.7-5.4c-18.1,0-24.1,8-27.4,26.1c-2,12-4,26.1-4,38.8
		c0,8,0.7,13.4,4.7,16.7c3.3,3.3,8,4.7,16.1,4.7c18.7,0,24.1-8.7,27.4-27.4c2-12,4-24.7,4-36.8C752.5,229.2,751.2,223.9,747.8,220.5
		"/>
	<path class="st1" d="M930.4,285.4c-8.7,28.1-26.1,42.1-66.2,42.1c-19.4,0-36.8-2.7-46.2-6c-10-3.3-12-7.4-12-14
		c0-3.3,0.7-7.4,1.3-12L824.7,149c0-3.3,2-5.4,5.4-6h29.4h1.3c2,0,4,1.3,4,3.3v0.7l-4,32.1l-2,14.7c0,0,15.4-4.7,31.4-4.7
		c16.7,0,28.8,3.3,36.1,10.7c7.4,7.4,11.4,18.7,11.4,36.1C937.8,252,935.1,270,930.4,285.4 M895,221.2c-3.3-4-8.7-5.4-16.7-5.4
		c-10,0-23.4,3.3-23.4,3.3l-10,80.3c0,0,8.7,2,19.4,2c18.1,0,25.4-5.4,30.1-31.4c2-10.7,3.3-22.1,3.3-33.4
		C898.3,229.2,897,223.9,895,221.2"/>
	<path class="st1" d="M1056.2,216.5c-0.7,2-2,2.7-4,2.7c0,0-0.7,0-1.3,0c-2.7,0-16.7-3.3-30.1-3.3c-6,0-14,0.7-18.7,4.7
		c-3.3,2.7-4.7,6.7-4.7,10.7l0,0c0,10.7,11.4,10.7,23.4,13.4c10,1.3,20.1,4,26.8,10.7c5.4,4.7,8,12,8,23.4c0,12-4,24.7-12.7,34.1
		c-11.4,11.4-28.8,16.1-48.2,16.1c-21.4,0-41.5-5.4-45.5-7.4c-0.7-0.7-2-0.7-2-2.7c0-0.7,0-1.3,0-2l5.4-16.1c0.7-2,2-3.3,3.3-3.3
		c0.7,0,0.7,0,1.3,0c3.3,0.7,20.7,6,36.1,6c7.4,0,13.4-1.3,18.1-5.4c4-3.3,5.4-7.4,5.4-11.4c0-5.4-2-8-5.4-10s-8-2.7-14-3.3
		c-9.4-2-22.1-3.3-30.1-11.4c-4.7-5.4-8-12-8-22.1c0-11.4,2.7-22.7,10-31.4c12.7-15.4,34.1-17.4,50.2-17.4c20.1,0,35.5,4,40.1,6
		c2,0.7,2,2,2,3.3v1.3L1056.2,216.5z"/>
	<path class="st1" d="M448.8,147.6c-4-1.3-15.4-4-33.4-4c-29.4,0-44.8,13.4-48.2,40.1l-1.3,16.1l-3.3,27.4l-12,88.3l0,0v2l-0.7,4.7
		l0,0l0,0l0,0l0,0c0,2,2,2.7,4,2.7h29.4c2,0,4.7-0.7,5.4-3.3v-2l0,0l13.4-92.3h30.8c2,0,4-1.3,4-4l2.7-20.1l0,0c0-2-1.3-3.3-3.3-3.3
		H404l2-16.1c1.3-10.7,6-13.4,18.1-13.4c6.7,0,14.7,1.3,17.4,2h1.3c2,0,2.7-1.3,3.3-3.3l4.7-17.4c0-0.7,0-0.7,0-1.3
		C450.8,149,450.2,147.6,448.8,147.6z"/>
</g>
</svg>
